<svg width="20" height="16" viewBox="0 0 20 16" fill="none" xmlns="http://www.w3.org/2000/svg">
<path fill-rule="evenodd" clip-rule="evenodd" d="M1.83987 6.88623C6.93298 4.60933 10.3375 3.13768 12.0261 2.41574C16.8741 0.360972 17.8818 0 18.5355 0C18.6716 0 18.9985 0.0277673 19.2164 0.19437C19.3798 0.333205 19.4342 0.527574 19.4615 0.666409C19.4887 0.805245 19.516 1.11068 19.4887 1.36059C19.2164 4.16506 18.0997 11.0235 17.5005 14.1612C17.2554 15.494 16.7651 15.9383 16.3021 15.9938C15.2944 16.0771 14.5046 15.2997 13.5241 14.661C11.9989 13.6336 11.1273 12.995 9.62933 11.9954C7.91347 10.8292 9.03014 10.1905 10.0106 9.16313C10.2558 8.88546 14.7497 4.74817 14.8314 4.35943C14.8314 4.3039 14.8586 4.13729 14.7497 4.05399C14.6407 3.97069 14.5046 3.99846 14.3956 4.02623C14.2322 4.05399 11.781 5.72002 7.01469 8.99653C6.30655 9.49634 5.68013 9.71848 5.10818 9.71848C4.48175 9.71848 3.28337 9.3575 2.38459 9.05207C1.29515 8.69109 0.423604 8.49672 0.505312 7.88585C0.58702 7.55264 1.02279 7.21944 1.83987 6.88623Z" fill="white"/>
</svg>
