<svg width="25" height="25" viewBox="0 0 25 25" fill="none" xmlns="http://www.w3.org/2000/svg">
<rect width="25" height="25" rx="12.5" fill="#183A5D"/>
<path fill-rule="evenodd" clip-rule="evenodd" d="M12.5009 5.25C12.7624 5.25 12.9744 5.46199 12.9744 5.72348V6.95455C12.9744 7.21604 12.7624 7.42803 12.5009 7.42803C12.2394 7.42803 12.0275 7.21604 12.0275 6.95455V5.72348C12.0275 5.46199 12.2394 5.25 12.5009 5.25ZM7.37258 7.37258C7.55749 7.18767 7.85728 7.18767 8.04219 7.37258L8.91719 8.24758C9.1021 8.43249 9.1021 8.73228 8.91719 8.91719C8.73228 9.1021 8.43249 9.1021 8.24758 8.91719L7.37258 8.04219C7.18767 7.85728 7.18767 7.55749 7.37258 7.37258ZM17.6293 7.37258C17.8142 7.55749 17.8142 7.85728 17.6293 8.04219L16.7543 8.91719C16.5694 9.1021 16.2696 9.1021 16.0847 8.91719C15.8998 8.73228 15.8998 8.43249 16.0847 8.24758L16.9597 7.37258C17.1446 7.18767 17.4444 7.18767 17.6293 7.37258ZM10.5265 9.54592C11.1109 9.15541 11.798 8.94697 12.5009 8.94697C13.4435 8.94697 14.3475 9.32141 15.014 9.98791C15.6805 10.6544 16.0549 11.5584 16.0549 12.5009C16.0549 13.2039 15.8465 13.891 15.456 14.4754C15.0655 15.0599 14.5104 15.5154 13.861 15.7844C13.2116 16.0534 12.497 16.1238 11.8076 15.9866C11.1182 15.8495 10.4849 15.511 9.98791 15.014C9.49087 14.517 9.15239 13.8837 9.01526 13.1943C8.87813 12.5049 8.94851 11.7903 9.2175 11.1409C9.48649 10.4915 9.94202 9.93644 10.5265 9.54592ZM5.25 12.5009C5.25 12.2394 5.46199 12.0275 5.72348 12.0275H6.95455C7.21604 12.0275 7.42803 12.2394 7.42803 12.5009C7.42803 12.7624 7.21604 12.9744 6.95455 12.9744H5.72348C5.46199 12.9744 5.25 12.7624 5.25 12.5009ZM17.572 12.5009C17.572 12.2394 17.784 12.0275 18.0455 12.0275H19.2765C19.538 12.0275 19.75 12.2394 19.75 12.5009C19.75 12.7624 19.538 12.9744 19.2765 12.9744H18.0455C17.784 12.9744 17.572 12.7624 17.572 12.5009ZM8.91719 16.0847C9.1021 16.2696 9.1021 16.5694 8.91719 16.7543L8.04219 17.6293C7.85728 17.8142 7.55749 17.8142 7.37258 17.6293C7.18767 17.4444 7.18767 17.1446 7.37258 16.9597L8.24758 16.0847C8.43249 15.8998 8.73228 15.8998 8.91719 16.0847ZM16.0847 16.0847C16.2696 15.8998 16.5694 15.8998 16.7543 16.0847L17.6293 16.9597C17.8142 17.1446 17.8142 17.4444 17.6293 17.6293C17.4444 17.8142 17.1446 17.8142 16.9597 17.6293L16.0847 16.7543C15.8998 16.5694 15.8998 16.2696 16.0847 16.0847ZM12.5009 17.572C12.7624 17.572 12.9744 17.784 12.9744 18.0455V19.2765C12.9744 19.538 12.7624 19.75 12.5009 19.75C12.2394 19.75 12.0275 19.538 12.0275 19.2765V18.0455C12.0275 17.784 12.2394 17.572 12.5009 17.572Z" fill="white"/>
</svg>
